<?xml version="1.0" encoding="UTF-8"?>
<svg id="Capa_1" data-name="Capa 1" xmlns="http://www.w3.org/2000/svg" xmlns:xlink="http://www.w3.org/1999/xlink" viewBox="0 0 336.25 145.31">
  <defs>
    <style>
      .cls-1 {
        fill: #b80e80;
      }

      .cls-1, .cls-2, .cls-3, .cls-4, .cls-5, .cls-6, .cls-7, .cls-8, .cls-9, .cls-10, .cls-11, .cls-12, .cls-13, .cls-14, .cls-15 {
        stroke-width: 0px;
      }

      .cls-1, .cls-7, .cls-9, .cls-11, .cls-12, .cls-14 {
        fill-rule: evenodd;
      }

      .cls-2 {
        fill: url(#Degradado_sin_nombre_3);
      }

      .cls-16 {
        clip-path: url(#clippath-2);
      }

      .cls-3 {
        fill: #e3132f;
      }

      .cls-17 {
        clip-path: url(#clippath-1);
      }

      .cls-18 {
        clip-path: url(#clippath-4);
      }

      .cls-4 {
        clip-rule: evenodd;
        fill: none;
      }

      .cls-5 {
        fill: #fff;
      }

      .cls-6 {
        fill: url(#Degradado_sin_nombre_4);
      }

      .cls-19 {
        clip-path: url(#clippath);
      }

      .cls-20 {
        clip-path: url(#clippath-3);
      }

      .cls-7 {
        fill: #8acbc1;
      }

      .cls-8 {
        fill: url(#Degradado_sin_nombre);
      }

      .cls-9 {
        fill: #31b7bc;
      }

      .cls-10 {
        fill: url(#Degradado_sin_nombre_2);
      }

      .cls-11 {
        fill: #e30613;
      }

      .cls-12 {
        fill: #1dbadf;
      }

      .cls-13 {
        fill: #1d1d1b;
      }

      .cls-14 {
        fill: #e6007e;
      }

      .cls-15 {
        fill: url(#Degradado_sin_nombre_5);
      }
    </style>
    <clipPath id="clippath">
      <path class="cls-4" d="M.41,71.05v.63c0,.73,0,1.45.04,2.18C3.57,33.64,51.97,16.97,86.28,35.79c11.66,6.4,15.57-5.31,8.14-10.66-7.81-5.64-18.45-8.37-29.75-8.37-26.83,0-57.47,15.34-63.38,43.41-.56,3.54-.87,7.16-.88,10.88"/>
    </clipPath>
    <linearGradient id="Degradado_sin_nombre" data-name="Degradado sin nombre" x1="-1.61" y1="58.76" x2="132.64" y2="24.52" gradientUnits="userSpaceOnUse">
      <stop offset="0" stop-color="#9ad2cf"/>
      <stop offset=".32" stop-color="#15add5"/>
      <stop offset=".7" stop-color="#1b6ab3"/>
      <stop offset="1" stop-color="#27398e"/>
    </linearGradient>
    <clipPath id="clippath-1">
      <path class="cls-4" d="M.41,71.23v.45c0,.73,0,1.45.04,2.18C3.57,33.64,51.97,16.97,86.28,35.79c11.66,6.4,15.57-5.31,8.14-10.66-7.81-5.64-18.45-8.37-29.75-8.37-26.83,0-57.47,15.34-63.38,43.41.47-3.04,1.15-6.05,1.97-8.93-1.85,6.34-2.85,13.04-2.85,19.98"/>
    </clipPath>
    <linearGradient id="Degradado_sin_nombre_2" data-name="Degradado sin nombre 2" x1="80.97" y1="30.33" x2="2.95" y2="69.51" gradientUnits="userSpaceOnUse">
      <stop offset="0" stop-color="#1bbade"/>
      <stop offset="1" stop-color="#ffed00"/>
    </linearGradient>
    <clipPath id="clippath-2">
      <path class="cls-4" d="M3.59,50.14C13.27,28.59,31.65,17.54,54.43,14.39c15-2.06,29.43.53,41.79,7.5,2.46,1.36,4.84,2.89,7.13,4.61,2.55,1.93,4.13,1.58,6.33-.53,1.23-1.14,2.03-.97,3.34-.22,3.57,1.89,9.06,6.32,12.14,8.64,3.87,2.85,7.52-.88,4.49-5.04C116.68,11.58,95.61,0,71.85,0,39.75,0,12.61,21.1,3.59,50.14"/>
    </clipPath>
    <linearGradient id="Degradado_sin_nombre_3" data-name="Degradado sin nombre 3" x1="156.28" y1="6.15" x2="7.86" y2="38.02" gradientUnits="userSpaceOnUse">
      <stop offset="0" stop-color="#30b7bc"/>
      <stop offset="1" stop-color="#dedc00"/>
    </linearGradient>
    <clipPath id="clippath-3">
      <path class="cls-4" d="M35.43,89.03c3.56,22.02,19.89,51.49,44.74,52.94,8.89-1.01,17.33-3.69,24.94-7.68-8.71,4.03-17.16,3.82-24.68.57-19.27-8.2-26.53-31.05-32.29-49.34-1.21-3.82-3.81-5.49-6.35-5.49-3.68,0-7.25,3.48-6.36,9Z"/>
    </clipPath>
    <linearGradient id="Degradado_sin_nombre_4" data-name="Degradado sin nombre 4" x1="94.23" y1="143.8" x2="48.82" y2="82.77" gradientUnits="userSpaceOnUse">
      <stop offset="0" stop-color="#d8328a"/>
      <stop offset="1" stop-color="#b70e80"/>
    </linearGradient>
    <clipPath id="clippath-4">
      <path class="cls-4" d="M1.46,83.54c6.91,61.77,71.72,58.91,71.72,58.91C27.71,131.18,29.4,61.27,29.4,61.27c0,0-.33-3.97-2.85-4.11-2.52-.14-4.1,2.92-4.1,2.92,0,0-1.41,3.89-3.78,3.53-2.36-.37-2.34-3.26-2.34-3.26-1.37-13.78,16.45-24.27,16.45-24.27C6.22,49.14,0,70.47,1.46,83.54Z"/>
    </clipPath>
    <linearGradient id="Degradado_sin_nombre_5" data-name="Degradado sin nombre 5" x1="62.27" y1="138.58" x2="22.69" y2="64.75" gradientUnits="userSpaceOnUse">
      <stop offset="0" stop-color="#831f82"/>
      <stop offset="1" stop-color="#e30613"/>
    </linearGradient>
  </defs>
  <rect class="cls-3" x="116.24" y="58.69" width="14.25" height="54.8"/>
  <path class="cls-3" d="M139.79,58.69h21.81c11.78,0,19.92,5.45,19.92,18.03s-6.98,18.61-19.41,18.61h-8.07v18.17h-14.25v-54.81ZM154.03,83.84h2.4c5.16,0,10.25,0,10.25-6.69s-4.72-6.98-10.25-6.98h-2.4v13.67Z"/>
  <polygon class="cls-3" points="202.07 70.75 202.07 79.91 218.14 79.91 218.14 91.98 202.07 91.98 202.07 101.43 219.01 101.43 219.01 113.49 187.83 113.49 187.83 58.69 219.01 58.69 219.01 70.75 202.07 70.75"/>
  <path class="cls-3" d="M286.53,103.97l-3.78,9.52h-15.12l21.08-54.81h15.56l20.64,54.81h-15.19l-3.56-9.52h-19.63ZM296.48,75.62h-.14l-5.89,17.44h11.85l-5.81-17.44Z"/>
  <path class="cls-13" d="M120.22,136.99h-2.16v-14.31h3.19c1.67,0,3.4.04,4.81.76,1.44.74,2.19,1.99,2.19,3.27,0,1.16-.65,2.33-1.86,3.07-1.31.8-2.99.95-4.61.95h-1.57v6.27ZM120.22,129.24h1.44c2.39,0,4.43-.53,4.43-2.58,0-2.34-2.55-2.51-5.07-2.51h-.8v5.09Z"/>
  <rect class="cls-13" x="143.93" y="122.68" width="2.17" height="14.31"/>
  <polygon class="cls-13" points="163.04 122.07 178.18 133.76 178.18 122.68 180.34 122.68 180.34 137.64 165.2 125.96 165.2 136.99 163.04 136.99 163.04 122.07"/>
  <polygon class="cls-13" points="202.41 136.99 200.24 136.99 200.24 124.16 195.56 124.16 195.56 122.68 207.14 122.68 207.14 124.16 202.41 124.16 202.41 136.99"/>
  <path class="cls-13" d="M224.34,131.2c0,1.06-.05,2.28.85,3.19.85.87,2.5,1.37,3.91,1.37s2.91-.48,3.81-1.27c1.03-.91.95-2.16.95-3.28v-8.52h2.16v8.96c0,1.56-.15,2.79-1.7,3.97-1.34,1.06-3.27,1.63-5.23,1.63-1.83,0-3.71-.51-5.02-1.46-1.7-1.2-1.91-2.51-1.91-4.14v-8.96h2.16v8.52Z"/>
  <path class="cls-13" d="M254.91,136.99h-2.16v-14.31h2.81c3.68,0,7.11.72,7.11,3.95,0,2.2-1.88,3.76-4.87,3.95l6.18,6.42h-2.65l-5.87-6.28h-.54v6.28ZM254.91,129.3h.67c2.45,0,4.92-.34,4.92-2.56,0-2.35-2.34-2.58-4.94-2.58h-.64v5.14Z"/>
  <path class="cls-13" d="M282.48,132.93l-2.34,4.06h-2.37l8.96-14.99,8.73,14.99h-2.4l-2.29-4.06h-8.29ZM286.68,125.71l-3.32,5.73h6.57l-3.24-5.73Z"/>
  <path class="cls-13" d="M319.25,125.47c-.77-.99-1.7-1.55-3.35-1.55s-3.22.91-3.22,2.22c0,1.23,1.72,1.8,3.04,2.24l1.29.42c2.52.82,4.66,1.75,4.66,4.02,0,2.51-2.73,4.42-6.1,4.42-3.12,0-5.43-1.48-6.05-3.7l2.11-.44c.28,1.46,1.8,2.66,3.89,2.66s3.99-1.18,3.99-2.79-1.78-2.24-3.58-2.85l-1.19-.38c-2.27-.76-4.22-1.62-4.22-3.67,0-2.22,2.55-3.64,5.44-3.64,2.16,0,3.99.82,5.02,2.22l-1.73.82Z"/>
  <g class="cls-19">
    <rect class="cls-8" x=".41" y="16.76" width="101.45" height="57.1"/>
  </g>
  <g class="cls-17">
    <rect class="cls-10" x=".41" y="16.76" width="101.45" height="57.1"/>
  </g>
  <g class="cls-16">
    <rect class="cls-2" x="3.59" width="129.11" height="50.14"/>
  </g>
  <g class="cls-20">
    <rect class="cls-6" x="34.54" y="80.03" width="70.57" height="61.94"/>
  </g>
  <path class="cls-14" d="M106.5,131.76c-15.84,5.57-25.87-4.87-22.26-11.4-6.07,4.34-15.4,3.77-21.08-4.65,4.62,7.15,10.56,13.2,18.65,16.62,7.52,3.24,15.97,3.46,24.68-.57"/>
  <path class="cls-11" d="M29.18,48c2.02,0,3.61,1.58,3.61,3.6s-1.58,3.6-3.61,3.6-3.61-1.62-3.61-3.6,1.63-3.6,3.61-3.6"/>
  <path class="cls-1" d="M39.25,62.54c2.86-.22,5.41,2.76,5.72,6.71.26,3.9-1.81,7.24-4.66,7.46-2.86.17-5.41-2.81-5.72-6.71-.31-3.9,1.8-7.24,4.66-7.46"/>
  <path class="cls-12" d="M107.58,36.84c3.35,1.89,4.97,5.26,3.65,7.55-1.32,2.23-5.06,2.54-8.36.61-3.35-1.89-4.97-5.26-3.65-7.54,1.32-2.24,5.06-2.54,8.36-.61"/>
  <path class="cls-7" d="M115.45,30.83c1.85,1.05,2.77,2.94,2.02,4.17-.7,1.27-2.81,1.45-4.62.39-1.85-1.09-2.77-2.94-2.03-4.21.71-1.27,2.82-1.41,4.62-.35"/>
  <path class="cls-9" d="M138.72,42.28c2.38,3.82,2.77,7.81.88,8.99-1.94,1.18-5.37-.92-7.74-4.69-2.37-3.82-2.77-7.85-.88-8.99,1.89-1.19,5.37.92,7.74,4.69"/>
  <path class="cls-13" d="M93.2,71.63c0,11.68-9.47,21.15-21.15,21.15s-21.15-9.47-21.15-21.15,9.47-21.15,21.15-21.15c2.49,0,4.88.43,7.09,1.22-2.37.48-4.16,2.57-4.16,5.08,0,2.86,2.32,5.18,5.18,5.18s5.18-2.32,5.18-5.18c0-.66-.12-1.29-.35-1.87,4.99,3.87,8.2,9.92,8.2,16.72"/>
  <path class="cls-5" d="M90.53,66.08c0,1.43-1.16,2.59-2.59,2.59s-2.59-1.16-2.59-2.59,1.16-2.59,2.59-2.59,2.59,1.16,2.59,2.59"/>
  <g class="cls-18">
    <rect class="cls-15" y="36.08" width="73.19" height="109.23"/>
  </g>
  <path class="cls-3" d="M336.25,64.18c0,3.11-2.49,5.56-5.66,5.56s-5.69-2.45-5.69-5.56,2.55-5.49,5.72-5.49,5.62,2.45,5.62,5.49M326.47,64.21c0,2.35,1.77,4.25,4.12,4.25,2.35.03,4.09-1.9,4.09-4.25s-1.73-4.25-4.15-4.25c-2.29,0-4.05,1.86-4.05,4.25ZM329.81,66.93h-1.44v-5.26c.42-.1,1.18-.2,2.19-.2,1.11,0,1.6.16,1.96.42.32.2.56.59.56,1.11,0,.59-.49,1.05-1.15,1.24v.07c.56.2.85.62,1.01,1.34.16.75.26,1.08.36,1.27h-1.57c-.16-.2-.26-.65-.39-1.21-.1-.56-.39-.78-.98-.78h-.56v1.99ZM329.84,63.92h.52c.65,0,1.11-.23,1.11-.72,0-.46-.36-.72-1.01-.72-.26,0-.49.03-.62.03v1.41Z"/>
  <path class="cls-3" d="M259.52,72.77c-2.61-2.17-5.94-3.62-9.42-3.62-2.61,0-6.08,1.52-6.08,4.56s3.84,4.42,6.3,5.21l3.62,1.09c7.6,2.24,13.47,6.08,13.47,14.92,0,5.43-1.3,11.01-5.65,14.7-4.27,3.62-9.99,5.14-15.5,5.14-6.88,0-13.62-2.32-19.19-6.23l6.08-11.44c3.55,3.11,7.75,5.65,12.6,5.65,3.33,0,6.88-1.67,6.88-5.51s-5.58-5.36-8.62-6.23c-8.91-2.54-14.77-4.85-14.77-15.43s7.89-18.32,18.83-18.32c5.5,0,12.24,1.74,17.09,4.49l-5.65,11.01Z"/>
</svg>